ISO-10303-21;
HEADER;
/* Generated by software containing ST-Developer
 * from STEP Tools, Inc. (www.steptools.com) 
 */
/* OPTION: using custom renumber hook */

FILE_DESCRIPTION(
/* description */ ('STEP AP242 Edition 2',
'CAx-IF Rec.Pracs.---Representation and Presentation of Product Manufa
cturing Information (PMI)---4.0---2014-10-13',
'CAx-IF Rec.Pracs.---3D Tessellated Geometry---0.4---2014-09-14','2;1',
'CAx-IF Rec.Pracs.---User Defined Attributes---1.5---2016-08-15'),
/* implementation_level */ '2;1');

FILE_NAME(
/* name */ 'Part Studio 1 - Part 1',
/* time_stamp */ '2026-06-03T13:26:24Z',
/* author */ (''),
/* organization */ (''),
/* preprocessor_version */ 'ST-DEVELOPER v20',
/* originating_system */ 'ONSHAPE BY PTC INC, 1.215',
/* authorisation */ '  ');

FILE_SCHEMA (('AP242_MANAGED_MODEL_BASED_3D_ENGINEERING_MIM_LF { 1 0 10303 442 3 1 4 }'));
ENDSEC;

DATA;
#10=SHAPE_REPRESENTATION_RELATIONSHIP('','',#439,#11);
#11=ADVANCED_BREP_SHAPE_REPRESENTATION('',(#437),#717);
#12=CYLINDRICAL_SURFACE('',#452,0.005);
#13=CYLINDRICAL_SURFACE('',#455,0.005);
#14=CYLINDRICAL_SURFACE('',#458,0.005);
#15=CYLINDRICAL_SURFACE('',#461,0.00145);
#16=CYLINDRICAL_SURFACE('',#463,0.00145);
#17=CYLINDRICAL_SURFACE('',#465,0.00145);
#18=CYLINDRICAL_SURFACE('',#467,0.00145);
#19=CYLINDRICAL_SURFACE('',#469,0.005);
#20=CIRCLE('',#443,0.00145);
#21=CIRCLE('',#444,0.00145);
#22=CIRCLE('',#445,0.00145);
#23=CIRCLE('',#446,0.00145);
#24=CIRCLE('',#447,0.005);
#25=CIRCLE('',#448,0.005);
#26=CIRCLE('',#449,0.005);
#27=CIRCLE('',#450,0.005);
#28=CIRCLE('',#453,0.005);
#29=CIRCLE('',#456,0.005);
#30=CIRCLE('',#459,0.005);
#31=CIRCLE('',#462,0.00145);
#32=CIRCLE('',#464,0.00145);
#33=CIRCLE('',#466,0.00145);
#34=CIRCLE('',#468,0.00145);
#35=CIRCLE('',#470,0.005);
#36=ORIENTED_EDGE('',*,*,#148,.F.);
#37=ORIENTED_EDGE('',*,*,#149,.F.);
#38=ORIENTED_EDGE('',*,*,#150,.T.);
#39=ORIENTED_EDGE('',*,*,#151,.F.);
#40=ORIENTED_EDGE('',*,*,#152,.F.);
#41=ORIENTED_EDGE('',*,*,#153,.F.);
#42=ORIENTED_EDGE('',*,*,#154,.F.);
#43=ORIENTED_EDGE('',*,*,#155,.F.);
#44=ORIENTED_EDGE('',*,*,#149,.T.);
#45=ORIENTED_EDGE('',*,*,#156,.T.);
#46=ORIENTED_EDGE('',*,*,#157,.F.);
#47=ORIENTED_EDGE('',*,*,#158,.T.);
#48=ORIENTED_EDGE('',*,*,#159,.T.);
#49=ORIENTED_EDGE('',*,*,#160,.T.);
#50=ORIENTED_EDGE('',*,*,#161,.T.);
#51=ORIENTED_EDGE('',*,*,#162,.T.);
#52=ORIENTED_EDGE('',*,*,#163,.F.);
#53=ORIENTED_EDGE('',*,*,#164,.T.);
#54=ORIENTED_EDGE('',*,*,#165,.F.);
#55=ORIENTED_EDGE('',*,*,#166,.F.);
#56=ORIENTED_EDGE('',*,*,#167,.T.);
#57=ORIENTED_EDGE('',*,*,#168,.T.);
#58=ORIENTED_EDGE('',*,*,#169,.F.);
#59=ORIENTED_EDGE('',*,*,#170,.F.);
#60=ORIENTED_EDGE('',*,*,#171,.T.);
#61=ORIENTED_EDGE('',*,*,#172,.F.);
#62=ORIENTED_EDGE('',*,*,#159,.F.);
#63=ORIENTED_EDGE('',*,*,#173,.T.);
#64=ORIENTED_EDGE('',*,*,#174,.T.);
#65=ORIENTED_EDGE('',*,*,#175,.F.);
#66=ORIENTED_EDGE('',*,*,#160,.F.);
#67=ORIENTED_EDGE('',*,*,#172,.T.);
#68=ORIENTED_EDGE('',*,*,#176,.T.);
#69=ORIENTED_EDGE('',*,*,#177,.F.);
#70=ORIENTED_EDGE('',*,*,#161,.F.);
#71=ORIENTED_EDGE('',*,*,#175,.T.);
#72=ORIENTED_EDGE('',*,*,#178,.T.);
#73=ORIENTED_EDGE('',*,*,#179,.F.);
#74=ORIENTED_EDGE('',*,*,#162,.F.);
#75=ORIENTED_EDGE('',*,*,#177,.T.);
#76=ORIENTED_EDGE('',*,*,#180,.F.);
#77=ORIENTED_EDGE('',*,*,#181,.F.);
#78=ORIENTED_EDGE('',*,*,#163,.T.);
#79=ORIENTED_EDGE('',*,*,#179,.T.);
#80=ORIENTED_EDGE('',*,*,#182,.T.);
#81=ORIENTED_EDGE('',*,*,#183,.F.);
#82=ORIENTED_EDGE('',*,*,#164,.F.);
#83=ORIENTED_EDGE('',*,*,#181,.T.);
#84=ORIENTED_EDGE('',*,*,#184,.F.);
#85=ORIENTED_EDGE('',*,*,#165,.T.);
#86=ORIENTED_EDGE('',*,*,#183,.T.);
#87=ORIENTED_EDGE('',*,*,#185,.F.);
#88=ORIENTED_EDGE('',*,*,#186,.F.);
#89=ORIENTED_EDGE('',*,*,#157,.T.);
#90=ORIENTED_EDGE('',*,*,#187,.T.);
#91=ORIENTED_EDGE('',*,*,#188,.F.);
#92=ORIENTED_EDGE('',*,*,#189,.F.);
#93=ORIENTED_EDGE('',*,*,#155,.T.);
#94=ORIENTED_EDGE('',*,*,#190,.F.);
#95=ORIENTED_EDGE('',*,*,#154,.T.);
#96=ORIENTED_EDGE('',*,*,#191,.F.);
#97=ORIENTED_EDGE('',*,*,#153,.T.);
#98=ORIENTED_EDGE('',*,*,#192,.F.);
#99=ORIENTED_EDGE('',*,*,#152,.T.);
#100=ORIENTED_EDGE('',*,*,#193,.T.);
#101=ORIENTED_EDGE('',*,*,#173,.F.);
#102=ORIENTED_EDGE('',*,*,#158,.F.);
#103=ORIENTED_EDGE('',*,*,#186,.T.);
#104=ORIENTED_EDGE('',*,*,#171,.F.);
#105=ORIENTED_EDGE('',*,*,#193,.F.);
#106=ORIENTED_EDGE('',*,*,#185,.T.);
#107=ORIENTED_EDGE('',*,*,#182,.F.);
#108=ORIENTED_EDGE('',*,*,#180,.T.);
#109=ORIENTED_EDGE('',*,*,#178,.F.);
#110=ORIENTED_EDGE('',*,*,#176,.F.);
#111=ORIENTED_EDGE('',*,*,#174,.F.);
#112=ORIENTED_EDGE('',*,*,#189,.T.);
#113=ORIENTED_EDGE('',*,*,#190,.T.);
#114=ORIENTED_EDGE('',*,*,#191,.T.);
#115=ORIENTED_EDGE('',*,*,#192,.T.);
#116=ORIENTED_EDGE('',*,*,#194,.T.);
#117=ORIENTED_EDGE('',*,*,#195,.T.);
#118=ORIENTED_EDGE('',*,*,#150,.F.);
#119=ORIENTED_EDGE('',*,*,#170,.T.);
#120=ORIENTED_EDGE('',*,*,#167,.F.);
#121=ORIENTED_EDGE('',*,*,#196,.T.);
#122=ORIENTED_EDGE('',*,*,#197,.F.);
#123=ORIENTED_EDGE('',*,*,#198,.F.);
#124=ORIENTED_EDGE('',*,*,#199,.F.);
#125=ORIENTED_EDGE('',*,*,#200,.F.);
#126=ORIENTED_EDGE('',*,*,#168,.F.);
#127=ORIENTED_EDGE('',*,*,#198,.T.);
#128=ORIENTED_EDGE('',*,*,#200,.T.);
#129=ORIENTED_EDGE('',*,*,#201,.T.);
#130=ORIENTED_EDGE('',*,*,#194,.F.);
#131=ORIENTED_EDGE('',*,*,#169,.T.);
#132=ORIENTED_EDGE('',*,*,#195,.F.);
#133=ORIENTED_EDGE('',*,*,#201,.F.);
#134=ORIENTED_EDGE('',*,*,#199,.T.);
#135=ORIENTED_EDGE('',*,*,#197,.T.);
#136=ORIENTED_EDGE('',*,*,#202,.T.);
#137=ORIENTED_EDGE('',*,*,#188,.T.);
#138=ORIENTED_EDGE('',*,*,#203,.F.);
#139=ORIENTED_EDGE('',*,*,#151,.T.);
#140=ORIENTED_EDGE('',*,*,#184,.T.);
#141=ORIENTED_EDGE('',*,*,#202,.F.);
#142=ORIENTED_EDGE('',*,*,#196,.F.);
#143=ORIENTED_EDGE('',*,*,#166,.T.);
#144=ORIENTED_EDGE('',*,*,#187,.F.);
#145=ORIENTED_EDGE('',*,*,#156,.F.);
#146=ORIENTED_EDGE('',*,*,#148,.T.);
#147=ORIENTED_EDGE('',*,*,#203,.T.);
#148=EDGE_CURVE('',#204,#205,#244,.T.);
#149=EDGE_CURVE('',#206,#204,#245,.T.);
#150=EDGE_CURVE('',#206,#207,#246,.T.);
#151=EDGE_CURVE('',#205,#207,#247,.T.);
#152=EDGE_CURVE('',#208,#208,#20,.T.);
#153=EDGE_CURVE('',#209,#209,#21,.T.);
#154=EDGE_CURVE('',#210,#210,#22,.T.);
#155=EDGE_CURVE('',#211,#211,#23,.T.);
#156=EDGE_CURVE('',#204,#212,#248,.T.);
#157=EDGE_CURVE('',#213,#212,#249,.T.);
#158=EDGE_CURVE('',#213,#214,#24,.T.);
#159=EDGE_CURVE('',#214,#215,#250,.T.);
#160=EDGE_CURVE('',#215,#216,#25,.T.);
#161=EDGE_CURVE('',#216,#217,#251,.T.);
#162=EDGE_CURVE('',#217,#218,#26,.T.);
#163=EDGE_CURVE('',#219,#218,#252,.T.);
#164=EDGE_CURVE('',#219,#220,#27,.T.);
#165=EDGE_CURVE('',#221,#220,#253,.T.);
#166=EDGE_CURVE('',#222,#221,#254,.T.);
#167=EDGE_CURVE('',#222,#223,#255,.T.);
#168=EDGE_CURVE('',#223,#224,#256,.T.);
#169=EDGE_CURVE('',#225,#224,#257,.T.);
#170=EDGE_CURVE('',#206,#225,#258,.T.);
#171=EDGE_CURVE('',#226,#227,#259,.T.);
#172=EDGE_CURVE('',#215,#227,#260,.T.);
#173=EDGE_CURVE('',#214,#226,#261,.T.);
#174=EDGE_CURVE('',#227,#228,#28,.T.);
#175=EDGE_CURVE('',#216,#228,#262,.T.);
#176=EDGE_CURVE('',#228,#229,#263,.T.);
#177=EDGE_CURVE('',#217,#229,#264,.T.);
#178=EDGE_CURVE('',#229,#230,#29,.T.);
#179=EDGE_CURVE('',#218,#230,#265,.T.);
#180=EDGE_CURVE('',#231,#230,#266,.T.);
#181=EDGE_CURVE('',#219,#231,#267,.T.);
#182=EDGE_CURVE('',#231,#232,#30,.T.);
#183=EDGE_CURVE('',#220,#232,#268,.T.);
#184=EDGE_CURVE('',#221,#233,#269,.T.);
#185=EDGE_CURVE('',#234,#232,#270,.T.);
#186=EDGE_CURVE('',#213,#234,#271,.T.);
#187=EDGE_CURVE('',#212,#235,#272,.T.);
#188=EDGE_CURVE('',#233,#235,#273,.T.);
#189=EDGE_CURVE('',#236,#236,#31,.T.);
#190=EDGE_CURVE('',#237,#237,#32,.T.);
#191=EDGE_CURVE('',#238,#238,#33,.T.);
#192=EDGE_CURVE('',#239,#239,#34,.T.);
#193=EDGE_CURVE('',#234,#226,#35,.T.);
#194=EDGE_CURVE('',#225,#240,#274,.T.);
#195=EDGE_CURVE('',#240,#207,#275,.T.);
#196=EDGE_CURVE('',#222,#241,#276,.T.);
#197=EDGE_CURVE('',#242,#241,#277,.T.);
#198=EDGE_CURVE('',#223,#242,#278,.T.);
#199=EDGE_CURVE('',#243,#242,#279,.T.);
#200=EDGE_CURVE('',#224,#243,#280,.T.);
#201=EDGE_CURVE('',#243,#240,#281,.T.);
#202=EDGE_CURVE('',#241,#233,#282,.T.);
#203=EDGE_CURVE('',#205,#235,#283,.T.);
#204=VERTEX_POINT('',#600);
#205=VERTEX_POINT('',#601);
#206=VERTEX_POINT('',#603);
#207=VERTEX_POINT('',#605);
#208=VERTEX_POINT('',#609);
#209=VERTEX_POINT('',#611);
#210=VERTEX_POINT('',#613);
#211=VERTEX_POINT('',#615);
#212=VERTEX_POINT('',#617);
#213=VERTEX_POINT('',#619);
#214=VERTEX_POINT('',#621);
#215=VERTEX_POINT('',#623);
#216=VERTEX_POINT('',#625);
#217=VERTEX_POINT('',#627);
#218=VERTEX_POINT('',#629);
#219=VERTEX_POINT('',#631);
#220=VERTEX_POINT('',#633);
#221=VERTEX_POINT('',#635);
#222=VERTEX_POINT('',#637);
#223=VERTEX_POINT('',#639);
#224=VERTEX_POINT('',#641);
#225=VERTEX_POINT('',#643);
#226=VERTEX_POINT('',#647);
#227=VERTEX_POINT('',#648);
#228=VERTEX_POINT('',#653);
#229=VERTEX_POINT('',#657);
#230=VERTEX_POINT('',#661);
#231=VERTEX_POINT('',#665);
#232=VERTEX_POINT('',#669);
#233=VERTEX_POINT('',#673);
#234=VERTEX_POINT('',#675);
#235=VERTEX_POINT('',#678);
#236=VERTEX_POINT('',#682);
#237=VERTEX_POINT('',#685);
#238=VERTEX_POINT('',#688);
#239=VERTEX_POINT('',#691);
#240=VERTEX_POINT('',#697);
#241=VERTEX_POINT('',#701);
#242=VERTEX_POINT('',#703);
#243=VERTEX_POINT('',#707);
#244=LINE('',#599,#284);
#245=LINE('',#602,#285);
#246=LINE('',#604,#286);
#247=LINE('',#606,#287);
#248=LINE('',#616,#288);
#249=LINE('',#618,#289);
#250=LINE('',#622,#290);
#251=LINE('',#626,#291);
#252=LINE('',#630,#292);
#253=LINE('',#634,#293);
#254=LINE('',#636,#294);
#255=LINE('',#638,#295);
#256=LINE('',#640,#296);
#257=LINE('',#642,#297);
#258=LINE('',#644,#298);
#259=LINE('',#646,#299);
#260=LINE('',#649,#300);
#261=LINE('',#650,#301);
#262=LINE('',#654,#302);
#263=LINE('',#656,#303);
#264=LINE('',#658,#304);
#265=LINE('',#662,#305);
#266=LINE('',#664,#306);
#267=LINE('',#666,#307);
#268=LINE('',#670,#308);
#269=LINE('',#672,#309);
#270=LINE('',#674,#310);
#271=LINE('',#676,#311);
#272=LINE('',#677,#312);
#273=LINE('',#679,#313);
#274=LINE('',#696,#314);
#275=LINE('',#698,#315);
#276=LINE('',#700,#316);
#277=LINE('',#702,#317);
#278=LINE('',#704,#318);
#279=LINE('',#706,#319);
#280=LINE('',#708,#320);
#281=LINE('',#710,#321);
#282=LINE('',#712,#322);
#283=LINE('',#713,#323);
#284=VECTOR('',#483,1.);
#285=VECTOR('',#484,1.);
#286=VECTOR('',#485,1.);
#287=VECTOR('',#486,1.);
#288=VECTOR('',#497,1.);
#289=VECTOR('',#498,1.);
#290=VECTOR('',#501,1.);
#291=VECTOR('',#504,1.);
#292=VECTOR('',#507,1.);
#293=VECTOR('',#510,1.);
#294=VECTOR('',#511,1.);
#295=VECTOR('',#512,1.);
#296=VECTOR('',#513,1.);
#297=VECTOR('',#514,1.);
#298=VECTOR('',#515,1.);
#299=VECTOR('',#518,1.);
#300=VECTOR('',#519,1.);
#301=VECTOR('',#520,1.);
#302=VECTOR('',#525,1.);
#303=VECTOR('',#528,1.);
#304=VECTOR('',#529,1.);
#305=VECTOR('',#534,1.);
#306=VECTOR('',#537,1.);
#307=VECTOR('',#538,1.);
#308=VECTOR('',#543,1.);
#309=VECTOR('',#546,1.);
#310=VECTOR('',#547,1.);
#311=VECTOR('',#548,1.);
#312=VECTOR('',#549,1.);
#313=VECTOR('',#550,1.);
#314=VECTOR('',#575,1.);
#315=VECTOR('',#576,1.);
#316=VECTOR('',#579,1.);
#317=VECTOR('',#580,1.);
#318=VECTOR('',#581,1.);
#319=VECTOR('',#584,1.);
#320=VECTOR('',#585,1.);
#321=VECTOR('',#588,1.);
#322=VECTOR('',#591,1.);
#323=VECTOR('',#592,1.);
#324=EDGE_LOOP('',(#36,#37,#38,#39));
#325=EDGE_LOOP('',(#40));
#326=EDGE_LOOP('',(#41));
#327=EDGE_LOOP('',(#42));
#328=EDGE_LOOP('',(#43));
#329=EDGE_LOOP('',(#44,#45,#46,#47,#48,#49,#50,#51,#52,#53,#54,#55,#56,
#57,#58,#59));
#330=EDGE_LOOP('',(#60,#61,#62,#63));
#331=EDGE_LOOP('',(#64,#65,#66,#67));
#332=EDGE_LOOP('',(#68,#69,#70,#71));
#333=EDGE_LOOP('',(#72,#73,#74,#75));
#334=EDGE_LOOP('',(#76,#77,#78,#79));
#335=EDGE_LOOP('',(#80,#81,#82,#83));
#336=EDGE_LOOP('',(#84,#85,#86,#87,#88,#89,#90,#91));
#337=EDGE_LOOP('',(#92));
#338=EDGE_LOOP('',(#93));
#339=EDGE_LOOP('',(#94));
#340=EDGE_LOOP('',(#95));
#341=EDGE_LOOP('',(#96));
#342=EDGE_LOOP('',(#97));
#343=EDGE_LOOP('',(#98));
#344=EDGE_LOOP('',(#99));
#345=EDGE_LOOP('',(#100,#101,#102,#103));
#346=EDGE_LOOP('',(#104,#105,#106,#107,#108,#109,#110,#111));
#347=EDGE_LOOP('',(#112));
#348=EDGE_LOOP('',(#113));
#349=EDGE_LOOP('',(#114));
#350=EDGE_LOOP('',(#115));
#351=EDGE_LOOP('',(#116,#117,#118,#119));
#352=EDGE_LOOP('',(#120,#121,#122,#123));
#353=EDGE_LOOP('',(#124,#125,#126,#127));
#354=EDGE_LOOP('',(#128,#129,#130,#131));
#355=EDGE_LOOP('',(#132,#133,#134,#135,#136,#137,#138,#139));
#356=EDGE_LOOP('',(#140,#141,#142,#143));
#357=EDGE_LOOP('',(#144,#145,#146,#147));
#358=FACE_BOUND('',#324,.T.);
#359=FACE_BOUND('',#325,.T.);
#360=FACE_BOUND('',#326,.T.);
#361=FACE_BOUND('',#327,.T.);
#362=FACE_BOUND('',#328,.T.);
#363=FACE_BOUND('',#329,.T.);
#364=FACE_BOUND('',#330,.T.);
#365=FACE_BOUND('',#331,.T.);
#366=FACE_BOUND('',#332,.T.);
#367=FACE_BOUND('',#333,.T.);
#368=FACE_BOUND('',#334,.T.);
#369=FACE_BOUND('',#335,.T.);
#370=FACE_BOUND('',#336,.T.);
#371=FACE_BOUND('',#337,.T.);
#372=FACE_BOUND('',#338,.T.);
#373=FACE_BOUND('',#339,.T.);
#374=FACE_BOUND('',#340,.T.);
#375=FACE_BOUND('',#341,.T.);
#376=FACE_BOUND('',#342,.T.);
#377=FACE_BOUND('',#343,.T.);
#378=FACE_BOUND('',#344,.T.);
#379=FACE_BOUND('',#345,.T.);
#380=FACE_BOUND('',#346,.T.);
#381=FACE_BOUND('',#347,.T.);
#382=FACE_BOUND('',#348,.T.);
#383=FACE_BOUND('',#349,.T.);
#384=FACE_BOUND('',#350,.T.);
#385=FACE_BOUND('',#351,.T.);
#386=FACE_BOUND('',#352,.T.);
#387=FACE_BOUND('',#353,.T.);
#388=FACE_BOUND('',#354,.T.);
#389=FACE_BOUND('',#355,.T.);
#390=FACE_BOUND('',#356,.T.);
#391=FACE_BOUND('',#357,.T.);
#392=PLANE('',#441);
#393=PLANE('',#442);
#394=PLANE('',#451);
#395=PLANE('',#454);
#396=PLANE('',#457);
#397=PLANE('',#460);
#398=PLANE('',#471);
#399=PLANE('',#472);
#400=PLANE('',#473);
#401=PLANE('',#474);
#402=PLANE('',#475);
#403=PLANE('',#476);
#404=PLANE('',#477);
#405=PLANE('',#478);
#406=ADVANCED_FACE('',(#358),#392,.F.);
#407=ADVANCED_FACE('',(#359,#360,#361,#362,#363),#393,.T.);
#408=ADVANCED_FACE('',(#364),#394,.F.);
#409=ADVANCED_FACE('',(#365),#12,.T.);
#410=ADVANCED_FACE('',(#366),#395,.F.);
#411=ADVANCED_FACE('',(#367),#13,.T.);
#412=ADVANCED_FACE('',(#368),#396,.T.);
#413=ADVANCED_FACE('',(#369),#14,.T.);
#414=ADVANCED_FACE('',(#370),#397,.T.);
#415=ADVANCED_FACE('',(#371,#372),#15,.F.);
#416=ADVANCED_FACE('',(#373,#374),#16,.F.);
#417=ADVANCED_FACE('',(#375,#376),#17,.F.);
#418=ADVANCED_FACE('',(#377,#378),#18,.F.);
#419=ADVANCED_FACE('',(#379),#19,.T.);
#420=ADVANCED_FACE('',(#380,#381,#382,#383,#384),#398,.F.);
#421=ADVANCED_FACE('',(#385),#399,.T.);
#422=ADVANCED_FACE('',(#386),#400,.F.);
#423=ADVANCED_FACE('',(#387),#401,.F.);
#424=ADVANCED_FACE('',(#388),#402,.T.);
#425=ADVANCED_FACE('',(#389),#403,.T.);
#426=ADVANCED_FACE('',(#390),#404,.F.);
#427=ADVANCED_FACE('',(#391),#405,.T.);
#428=CLOSED_SHELL('',(#406,#407,#408,#409,#410,#411,#412,#413,#414,#415,
#416,#417,#418,#419,#420,#421,#422,#423,#424,#425,#426,#427));
#429=STYLED_ITEM('',(#430),#437);
#430=PRESENTATION_STYLE_ASSIGNMENT((#431));
#431=SURFACE_STYLE_USAGE(.BOTH.,#432);
#432=SURFACE_SIDE_STYLE('',(#433));
#433=SURFACE_STYLE_FILL_AREA(#434);
#434=FILL_AREA_STYLE('',(#435));
#435=FILL_AREA_STYLE_COLOUR('',#436);
#436=COLOUR_RGB('',0.615686274509804,0.811764705882353,0.929411764705882);
#437=MANIFOLD_SOLID_BREP('Part 1',#428);
#438=SHAPE_DEFINITION_REPRESENTATION(#722,#439);
#439=SHAPE_REPRESENTATION('Part 1',(#440),#717);
#440=AXIS2_PLACEMENT_3D('',#597,#479,#480);
#441=AXIS2_PLACEMENT_3D('',#598,#481,#482);
#442=AXIS2_PLACEMENT_3D('',#607,#487,#488);
#443=AXIS2_PLACEMENT_3D('',#608,#489,#490);
#444=AXIS2_PLACEMENT_3D('',#610,#491,#492);
#445=AXIS2_PLACEMENT_3D('',#612,#493,#494);
#446=AXIS2_PLACEMENT_3D('',#614,#495,#496);
#447=AXIS2_PLACEMENT_3D('',#620,#499,#500);
#448=AXIS2_PLACEMENT_3D('',#624,#502,#503);
#449=AXIS2_PLACEMENT_3D('',#628,#505,#506);
#450=AXIS2_PLACEMENT_3D('',#632,#508,#509);
#451=AXIS2_PLACEMENT_3D('',#645,#516,#517);
#452=AXIS2_PLACEMENT_3D('',#651,#521,#522);
#453=AXIS2_PLACEMENT_3D('',#652,#523,#524);
#454=AXIS2_PLACEMENT_3D('',#655,#526,#527);
#455=AXIS2_PLACEMENT_3D('',#659,#530,#531);
#456=AXIS2_PLACEMENT_3D('',#660,#532,#533);
#457=AXIS2_PLACEMENT_3D('',#663,#535,#536);
#458=AXIS2_PLACEMENT_3D('',#667,#539,#540);
#459=AXIS2_PLACEMENT_3D('',#668,#541,#542);
#460=AXIS2_PLACEMENT_3D('',#671,#544,#545);
#461=AXIS2_PLACEMENT_3D('',#680,#551,#552);
#462=AXIS2_PLACEMENT_3D('',#681,#553,#554);
#463=AXIS2_PLACEMENT_3D('',#683,#555,#556);
#464=AXIS2_PLACEMENT_3D('',#684,#557,#558);
#465=AXIS2_PLACEMENT_3D('',#686,#559,#560);
#466=AXIS2_PLACEMENT_3D('',#687,#561,#562);
#467=AXIS2_PLACEMENT_3D('',#689,#563,#564);
#468=AXIS2_PLACEMENT_3D('',#690,#565,#566);
#469=AXIS2_PLACEMENT_3D('',#692,#567,#568);
#470=AXIS2_PLACEMENT_3D('',#693,#569,#570);
#471=AXIS2_PLACEMENT_3D('',#694,#571,#572);
#472=AXIS2_PLACEMENT_3D('',#695,#573,#574);
#473=AXIS2_PLACEMENT_3D('',#699,#577,#578);
#474=AXIS2_PLACEMENT_3D('',#705,#582,#583);
#475=AXIS2_PLACEMENT_3D('',#709,#586,#587);
#476=AXIS2_PLACEMENT_3D('',#711,#589,#590);
#477=AXIS2_PLACEMENT_3D('',#714,#593,#594);
#478=AXIS2_PLACEMENT_3D('',#715,#595,#596);
#479=DIRECTION('',(0.,0.,1.));
#480=DIRECTION('',(1.,0.,0.));
#481=DIRECTION('',(0.,1.,0.));
#482=DIRECTION('',(0.,0.,1.));
#483=DIRECTION('',(-6.50521303491303E-17,0.,-1.));
#484=DIRECTION('',(1.,0.,0.));
#485=DIRECTION('',(0.,0.,-1.));
#486=DIRECTION('',(-1.,0.,0.));
#487=DIRECTION('',(0.,0.,1.));
#488=DIRECTION('',(1.,0.,0.));
#489=DIRECTION('',(0.,0.,1.));
#490=DIRECTION('',(1.,0.,0.));
#491=DIRECTION('',(0.,0.,1.));
#492=DIRECTION('',(1.,0.,0.));
#493=DIRECTION('',(0.,0.,1.));
#494=DIRECTION('',(1.,0.,0.));
#495=DIRECTION('',(0.,0.,1.));
#496=DIRECTION('',(1.,0.,0.));
#497=DIRECTION('',(0.,1.,0.));
#498=DIRECTION('',(1.,0.,0.));
#499=DIRECTION('',(0.,0.,1.));
#500=DIRECTION('',(1.,0.,0.));
#501=DIRECTION('',(7.53817914601546E-17,-1.,0.));
#502=DIRECTION('',(0.,0.,1.));
#503=DIRECTION('',(1.,0.,0.));
#504=DIRECTION('',(1.,0.,0.));
#505=DIRECTION('',(0.,0.,1.));
#506=DIRECTION('',(1.,0.,0.));
#507=DIRECTION('',(0.,-1.,0.));
#508=DIRECTION('',(0.,0.,1.));
#509=DIRECTION('',(1.,0.,0.));
#510=DIRECTION('',(1.,0.,0.));
#511=DIRECTION('',(0.,1.,0.));
#512=DIRECTION('',(1.,0.,0.));
#513=DIRECTION('',(0.,-1.,0.));
#514=DIRECTION('',(1.,0.,0.));
#515=DIRECTION('',(4.22845454229569E-17,-1.,0.));
#516=DIRECTION('',(1.,7.53817914601546E-17,0.));
#517=DIRECTION('',(-7.53817914601546E-17,1.,0.));
#518=DIRECTION('',(7.53817914601546E-17,-1.,0.));
#519=DIRECTION('',(0.,0.,-1.));
#520=DIRECTION('',(0.,0.,-1.));
#521=DIRECTION('',(0.,0.,-1.));
#522=DIRECTION('',(-1.,0.,0.));
#523=DIRECTION('',(0.,0.,1.));
#524=DIRECTION('',(1.,0.,0.));
#525=DIRECTION('',(0.,0.,-1.));
#526=DIRECTION('',(0.,1.,0.));
#527=DIRECTION('',(0.,0.,1.));
#528=DIRECTION('',(1.,0.,0.));
#529=DIRECTION('',(0.,0.,-1.));
#530=DIRECTION('',(0.,0.,-1.));
#531=DIRECTION('',(-1.,0.,0.));
#532=DIRECTION('',(0.,0.,1.));
#533=DIRECTION('',(1.,0.,0.));
#534=DIRECTION('',(0.,0.,-1.));
#535=DIRECTION('',(1.,0.,0.));
#536=DIRECTION('',(0.,0.,-1.));
#537=DIRECTION('',(0.,-1.,0.));
#538=DIRECTION('',(0.,0.,-1.));
#539=DIRECTION('',(0.,0.,-1.));
#540=DIRECTION('',(-1.,0.,0.));
#541=DIRECTION('',(0.,0.,1.));
#542=DIRECTION('',(1.,0.,0.));
#543=DIRECTION('',(0.,0.,-1.));
#544=DIRECTION('',(0.,1.,0.));
#545=DIRECTION('',(0.,0.,1.));
#546=DIRECTION('',(0.,0.,-1.));
#547=DIRECTION('',(1.,0.,0.));
#548=DIRECTION('',(0.,0.,-1.));
#549=DIRECTION('',(-6.50521303491303E-17,0.,-1.));
#550=DIRECTION('',(-1.,0.,0.));
#551=DIRECTION('',(0.,0.,-1.));
#552=DIRECTION('',(-1.,0.,0.));
#553=DIRECTION('',(0.,0.,1.));
#554=DIRECTION('',(1.,0.,0.));
#555=DIRECTION('',(0.,0.,-1.));
#556=DIRECTION('',(-1.,0.,0.));
#557=DIRECTION('',(0.,0.,1.));
#558=DIRECTION('',(1.,0.,0.));
#559=DIRECTION('',(0.,0.,-1.));
#560=DIRECTION('',(-1.,0.,0.));
#561=DIRECTION('',(0.,0.,1.));
#562=DIRECTION('',(1.,0.,0.));
#563=DIRECTION('',(0.,0.,-1.));
#564=DIRECTION('',(-1.,0.,0.));
#565=DIRECTION('',(0.,0.,1.));
#566=DIRECTION('',(1.,0.,0.));
#567=DIRECTION('',(0.,0.,-1.));
#568=DIRECTION('',(-1.,0.,0.));
#569=DIRECTION('',(0.,0.,1.));
#570=DIRECTION('',(1.,0.,0.));
#571=DIRECTION('',(0.,0.,1.));
#572=DIRECTION('',(1.,0.,0.));
#573=DIRECTION('',(1.,4.22845454229569E-17,0.));
#574=DIRECTION('',(-4.22845454229569E-17,1.,0.));
#575=DIRECTION('',(0.,0.,-1.));
#576=DIRECTION('',(-4.22845454229569E-17,1.,0.));
#577=DIRECTION('',(0.,1.,0.));
#578=DIRECTION('',(0.,0.,1.));
#579=DIRECTION('',(0.,0.,-1.));
#580=DIRECTION('',(-1.,0.,0.));
#581=DIRECTION('',(0.,0.,-1.));
#582=DIRECTION('',(1.,0.,0.));
#583=DIRECTION('',(0.,0.,-1.));
#584=DIRECTION('',(0.,1.,0.));
#585=DIRECTION('',(0.,0.,-1.));
#586=DIRECTION('',(0.,1.,0.));
#587=DIRECTION('',(0.,0.,1.));
#588=DIRECTION('',(-1.,0.,0.));
#589=DIRECTION('',(0.,0.,1.));
#590=DIRECTION('',(1.,0.,0.));
#591=DIRECTION('',(0.,1.,0.));
#592=DIRECTION('',(0.,1.,0.));
#593=DIRECTION('',(1.,0.,0.));
#594=DIRECTION('',(0.,0.,-1.));
#595=DIRECTION('',(1.,0.,-6.50521303491303E-17));
#596=DIRECTION('',(-6.50521303491303E-17,0.,-1.));
#597=CARTESIAN_POINT('',(0.,0.,0.));
#598=CARTESIAN_POINT('',(0.00829540296971798,0.0569033049482649,0.013));
#599=CARTESIAN_POINT('',(0.000823043324947351,0.0569033049482649,0.008));
#600=CARTESIAN_POINT('',(0.000823043324947351,0.0569033049482649,0.013));
#601=CARTESIAN_POINT('',(0.000823043324947351,0.0569033049482649,0.003));
#602=CARTESIAN_POINT('',(0.00829540296971798,0.0569033049482649,0.013));
#603=CARTESIAN_POINT('',(-0.020309597030282,0.0569033049482649,0.013));
#604=CARTESIAN_POINT('',(-0.020309597030282,0.0569033049482649,0.013));
#605=CARTESIAN_POINT('',(-0.020309597030282,0.0569033049482649,0.003));
#606=CARTESIAN_POINT('',(0.00829540296971798,0.0569033049482649,0.003));
#607=CARTESIAN_POINT('',(0.00829540296971798,0.0158783049482649,0.013));
#608=CARTESIAN_POINT('',(0.0419004029697179,0.0619033049482649,0.013));
#609=CARTESIAN_POINT('',(0.0433504029697179,0.0619033049482649,0.013));
#610=CARTESIAN_POINT('',(0.041900402969718,-0.0301466950517351,0.013));
#611=CARTESIAN_POINT('',(0.043350402969718,-0.0301466950517351,0.013));
#612=CARTESIAN_POINT('',(-0.025309597030282,-0.0301466950517351,0.013));
#613=CARTESIAN_POINT('',(-0.023859597030282,-0.0301466950517351,0.013));
#614=CARTESIAN_POINT('',(-0.0253095970302821,0.0619033049482649,0.013));
#615=CARTESIAN_POINT('',(-0.0238595970302821,0.0619033049482649,0.013));
#616=CARTESIAN_POINT('',(0.000823043324947351,0.0569033049482649,0.013));
#617=CARTESIAN_POINT('',(0.000823043324947351,0.0669033049482649,0.013));
#618=CARTESIAN_POINT('',(0.00829540296971798,0.0669033049482649,0.013));
#619=CARTESIAN_POINT('',(-0.025309597030282,0.0669033049482649,0.013));
#620=CARTESIAN_POINT('',(-0.025309597030282,0.0619033049482649,0.013));
#621=CARTESIAN_POINT('',(-0.030309597030282,0.0619033049482649,0.013));
#622=CARTESIAN_POINT('',(-0.030309597030282,0.0158783049482649,0.013));
#623=CARTESIAN_POINT('',(-0.030309597030282,-0.0301466950517351,0.013));
#624=CARTESIAN_POINT('',(-0.025309597030282,-0.0301466950517351,0.013));
#625=CARTESIAN_POINT('',(-0.025309597030282,-0.0351466950517351,0.013));
#626=CARTESIAN_POINT('',(0.00829540296971798,-0.0351466950517351,0.013));
#627=CARTESIAN_POINT('',(0.0419004029697179,-0.0351466950517351,0.013));
#628=CARTESIAN_POINT('',(0.0419004029697179,-0.0301466950517351,0.013));
#629=CARTESIAN_POINT('',(0.046900402969718,-0.0301466950517351,0.013));
#630=CARTESIAN_POINT('',(0.046900402969718,0.0158783049482649,0.013));
#631=CARTESIAN_POINT('',(0.046900402969718,0.0619033049482649,0.013));
#632=CARTESIAN_POINT('',(0.0419004029697179,0.0619033049482649,0.013));
#633=CARTESIAN_POINT('',(0.0419004029697179,0.0669033049482649,0.013));
#634=CARTESIAN_POINT('',(0.00829540296971798,0.0669033049482649,0.013));
#635=CARTESIAN_POINT('',(0.0158230433249474,0.0669033049482649,0.013));
#636=CARTESIAN_POINT('',(0.0158230433249474,0.0569033049482649,0.013));
#637=CARTESIAN_POINT('',(0.0158230433249474,0.0569033049482649,0.013));
#638=CARTESIAN_POINT('',(0.00829540296971798,0.0569033049482649,0.013));
#639=CARTESIAN_POINT('',(0.036900402969718,0.0569033049482649,0.013));
#640=CARTESIAN_POINT('',(0.036900402969718,0.0158783049482649,0.013));
#641=CARTESIAN_POINT('',(0.036900402969718,-0.0251466950517351,0.013));
#642=CARTESIAN_POINT('',(0.00829540296971798,-0.0251466950517351,0.013));
#643=CARTESIAN_POINT('',(-0.020309597030282,-0.0251466950517351,0.013));
#644=CARTESIAN_POINT('',(-0.020309597030282,0.0158783049482649,0.013));
#645=CARTESIAN_POINT('',(-0.030309597030282,0.0158783049482649,0.003));
#646=CARTESIAN_POINT('',(-0.030309597030282,0.0158783049482649,0.));
#647=CARTESIAN_POINT('',(-0.030309597030282,0.0619033049482649,0.));
#648=CARTESIAN_POINT('',(-0.030309597030282,-0.0301466950517351,0.));
#649=CARTESIAN_POINT('',(-0.030309597030282,-0.0301466950517351,0.003));
#650=CARTESIAN_POINT('',(-0.030309597030282,0.0619033049482649,0.003));
#651=CARTESIAN_POINT('',(-0.025309597030282,-0.0301466950517351,0.003));
#652=CARTESIAN_POINT('',(-0.025309597030282,-0.0301466950517351,0.));
#653=CARTESIAN_POINT('',(-0.025309597030282,-0.0351466950517351,0.));
#654=CARTESIAN_POINT('',(-0.025309597030282,-0.0351466950517351,0.003));
#655=CARTESIAN_POINT('',(0.00829540296971798,-0.0351466950517351,0.003));
#656=CARTESIAN_POINT('',(0.00829540296971798,-0.0351466950517351,0.));
#657=CARTESIAN_POINT('',(0.0419004029697179,-0.0351466950517351,0.));
#658=CARTESIAN_POINT('',(0.0419004029697179,-0.0351466950517351,0.003));
#659=CARTESIAN_POINT('',(0.0419004029697179,-0.0301466950517351,0.003));
#660=CARTESIAN_POINT('',(0.0419004029697179,-0.0301466950517351,0.));
#661=CARTESIAN_POINT('',(0.046900402969718,-0.0301466950517351,0.));
#662=CARTESIAN_POINT('',(0.046900402969718,-0.0301466950517351,0.003));
#663=CARTESIAN_POINT('',(0.046900402969718,0.0158783049482649,0.003));
#664=CARTESIAN_POINT('',(0.046900402969718,0.0158783049482649,0.));
#665=CARTESIAN_POINT('',(0.046900402969718,0.0619033049482649,0.));
#666=CARTESIAN_POINT('',(0.046900402969718,0.0619033049482649,0.003));
#667=CARTESIAN_POINT('',(0.0419004029697179,0.0619033049482649,0.003));
#668=CARTESIAN_POINT('',(0.0419004029697179,0.0619033049482649,0.));
#669=CARTESIAN_POINT('',(0.0419004029697179,0.0669033049482649,0.));
#670=CARTESIAN_POINT('',(0.0419004029697179,0.0669033049482649,0.003));
#671=CARTESIAN_POINT('',(0.00829540296971798,0.0669033049482649,0.003));
#672=CARTESIAN_POINT('',(0.0158230433249474,0.0669033049482649,0.008));
#673=CARTESIAN_POINT('',(0.0158230433249474,0.0669033049482649,0.003));
#674=CARTESIAN_POINT('',(0.00829540296971798,0.0669033049482649,0.));
#675=CARTESIAN_POINT('',(-0.025309597030282,0.0669033049482649,0.));
#676=CARTESIAN_POINT('',(-0.025309597030282,0.0669033049482649,0.003));
#677=CARTESIAN_POINT('',(0.000823043324947351,0.0669033049482649,0.008));
#678=CARTESIAN_POINT('',(0.000823043324947351,0.0669033049482649,0.003));
#679=CARTESIAN_POINT('',(0.00832304332494735,0.0669033049482649,0.003));
#680=CARTESIAN_POINT('',(-0.0253095970302821,0.0619033049482649,0.003));
#681=CARTESIAN_POINT('',(-0.0253095970302821,0.0619033049482649,0.));
#682=CARTESIAN_POINT('',(-0.0238595970302821,0.0619033049482649,0.));
#683=CARTESIAN_POINT('',(-0.025309597030282,-0.0301466950517351,0.003));
#684=CARTESIAN_POINT('',(-0.025309597030282,-0.0301466950517351,0.));
#685=CARTESIAN_POINT('',(-0.023859597030282,-0.0301466950517351,0.));
#686=CARTESIAN_POINT('',(0.041900402969718,-0.0301466950517351,0.003));
#687=CARTESIAN_POINT('',(0.041900402969718,-0.0301466950517351,0.));
#688=CARTESIAN_POINT('',(0.043350402969718,-0.0301466950517351,0.));
#689=CARTESIAN_POINT('',(0.0419004029697179,0.0619033049482649,0.003));
#690=CARTESIAN_POINT('',(0.0419004029697179,0.0619033049482649,0.));
#691=CARTESIAN_POINT('',(0.0433504029697179,0.0619033049482649,0.));
#692=CARTESIAN_POINT('',(-0.025309597030282,0.0619033049482649,0.003));
#693=CARTESIAN_POINT('',(-0.025309597030282,0.0619033049482649,0.));
#694=CARTESIAN_POINT('',(0.00829540296971798,0.0158783049482649,0.));
#695=CARTESIAN_POINT('',(-0.020309597030282,0.0158783049482649,0.013));
#696=CARTESIAN_POINT('',(-0.020309597030282,-0.0251466950517351,0.013));
#697=CARTESIAN_POINT('',(-0.020309597030282,-0.0251466950517351,0.003));
#698=CARTESIAN_POINT('',(-0.020309597030282,0.0158783049482649,0.003));
#699=CARTESIAN_POINT('',(0.00829540296971798,0.0569033049482649,0.013));
#700=CARTESIAN_POINT('',(0.0158230433249474,0.0569033049482649,0.008));
#701=CARTESIAN_POINT('',(0.0158230433249474,0.0569033049482649,0.003));
#702=CARTESIAN_POINT('',(0.00829540296971798,0.0569033049482649,0.003));
#703=CARTESIAN_POINT('',(0.036900402969718,0.0569033049482649,0.003));
#704=CARTESIAN_POINT('',(0.036900402969718,0.0569033049482649,0.013));
#705=CARTESIAN_POINT('',(0.036900402969718,0.0158783049482649,0.013));
#706=CARTESIAN_POINT('',(0.036900402969718,0.0158783049482649,0.003));
#707=CARTESIAN_POINT('',(0.036900402969718,-0.0251466950517351,0.003));
#708=CARTESIAN_POINT('',(0.036900402969718,-0.0251466950517351,0.013));
#709=CARTESIAN_POINT('',(0.00829540296971798,-0.0251466950517351,0.013));
#710=CARTESIAN_POINT('',(0.00829540296971798,-0.0251466950517351,0.003));
#711=CARTESIAN_POINT('',(0.00829540296971798,0.0158783049482649,0.003));
#712=CARTESIAN_POINT('',(0.0158230433249474,0.0569033049482649,0.003));
#713=CARTESIAN_POINT('',(0.000823043324947351,0.0569033049482649,0.003));
#714=CARTESIAN_POINT('',(0.0158230433249474,0.0569033049482649,0.008));
#715=CARTESIAN_POINT('',(0.000823043324947351,0.0569033049482649,0.008));
#716=MECHANICAL_DESIGN_GEOMETRIC_PRESENTATION_REPRESENTATION('',(#429),
#717);
#717=(
GEOMETRIC_REPRESENTATION_CONTEXT(3)
GLOBAL_UNCERTAINTY_ASSIGNED_CONTEXT((#718))
GLOBAL_UNIT_ASSIGNED_CONTEXT((#721,#720,#719))
REPRESENTATION_CONTEXT('Part 1','TOP_LEVEL_ASSEMBLY_PART')
);
#718=UNCERTAINTY_MEASURE_WITH_UNIT(LENGTH_MEASURE(1.E-8),#721,
'DISTANCE_ACCURACY_VALUE','Maximum Tolerance applied to model');
#719=(
NAMED_UNIT(*)
SI_UNIT($,.STERADIAN.)
SOLID_ANGLE_UNIT()
);
#720=(
NAMED_UNIT(*)
PLANE_ANGLE_UNIT()
SI_UNIT($,.RADIAN.)
);
#721=(
LENGTH_UNIT()
NAMED_UNIT(*)
SI_UNIT($,.METRE.)
);
#722=PRODUCT_DEFINITION_SHAPE('','',#723);
#723=PRODUCT_DEFINITION('','',#725,#724);
#724=PRODUCT_DEFINITION_CONTEXT('',#731,'design');
#725=PRODUCT_DEFINITION_FORMATION_WITH_SPECIFIED_SOURCE('','',#727,
 .NOT_KNOWN.);
#726=PRODUCT_RELATED_PRODUCT_CATEGORY('','',(#727));
#727=PRODUCT('Part 1','Part 1','Part 1',(#729));
#728=PRODUCT_CATEGORY('','');
#729=PRODUCT_CONTEXT('',#731,'mechanical');
#730=APPLICATION_PROTOCOL_DEFINITION('international standard',
'ap242_managed_model_based_3d_engineering',2020,#731);
#731=APPLICATION_CONTEXT('managed model based 3d engineering');
ENDSEC;
END-ISO-10303-21;
